<svg width="30" height="30" viewBox="0 0 30 30" fill="none" xmlns="http://www.w3.org/2000/svg">
<path d="M15.8775 2.74378L24.6275 6.02503C25.1041 6.20369 25.5149 6.5236 25.8048 6.94197C26.0947 7.36035 26.2501 7.85726 26.25 8.36628V15.07C26.25 17.1593 25.6683 19.2073 24.5699 20.9846C23.4715 22.7619 21.9 24.1982 20.0312 25.1325L15.8387 27.2288C15.5783 27.359 15.2912 27.4268 15 27.4268C14.7088 27.4268 14.4217 27.359 14.1613 27.2288L9.96875 25.1325C8.10005 24.1982 6.52846 22.7619 5.43009 20.9846C4.33171 19.2073 3.74995 17.1593 3.75 15.07V8.36628C3.74994 7.85726 3.90525 7.36035 4.19519 6.94197C4.48513 6.5236 4.89587 6.20369 5.3725 6.02503L14.1225 2.74378C14.6883 2.5317 15.3117 2.5317 15.8775 2.74378ZM15 5.08503L6.25 8.36628V15.07C6.25029 16.6949 6.70299 18.2875 7.55739 19.6696C8.4118 21.0516 9.63415 22.1685 11.0875 22.895L15 24.8538L18.9125 22.8975C20.3662 22.1708 21.5888 21.0536 22.4433 19.671C23.2977 18.2885 23.7502 16.6953 23.75 15.07V8.36628L15 5.08503ZM15 10C15.5336 9.99981 16.0532 10.1703 16.483 10.4866C16.9127 10.8029 17.23 11.2484 17.3883 11.7579C17.5467 12.2674 17.5379 12.8143 17.3633 13.3185C17.1886 13.8226 16.8572 14.2577 16.4175 14.56L16.25 14.6663V18.75C16.2496 19.0686 16.1277 19.3751 15.9089 19.6067C15.6902 19.8384 15.3913 19.9778 15.0733 19.9965C14.7552 20.0152 14.442 19.9117 14.1977 19.7072C13.9534 19.5027 13.7964 19.2126 13.7587 18.8963L13.75 18.75V14.6663C13.2728 14.3914 12.8997 13.9666 12.6887 13.4579C12.4777 12.9492 12.4406 12.3851 12.5831 11.8531C12.7256 11.3212 13.0398 10.8512 13.4768 10.5161C13.9138 10.181 14.4493 9.99957 15 10Z" fill="#1E3A8A"/>
</svg>
