<svg width="30" height="30" viewBox="0 0 30 30" fill="none" xmlns="http://www.w3.org/2000/svg">
<path d="M26.25 15C26.25 16.4774 25.959 17.9403 25.3936 19.3052C24.8283 20.6701 23.9996 21.9103 22.955 22.955C21.9103 23.9996 20.6701 24.8283 19.3052 25.3936C17.9403 25.959 16.4774 26.25 15 26.25C13.5226 26.25 12.0597 25.959 10.6948 25.3936C9.3299 24.8283 8.08971 23.9996 7.04505 22.955C6.00039 21.9103 5.17172 20.6701 4.60636 19.3052C4.04099 17.9403 3.75 16.4774 3.75 15C3.75 12.0163 4.93526 9.15483 7.04505 7.04505C9.15483 4.93526 12.0163 3.75 15 3.75C17.9837 3.75 20.8452 4.93526 22.955 7.04505C25.0647 9.15483 26.25 12.0163 26.25 15Z" stroke="#1E3A8A" stroke-width="1.5" stroke-linecap="round" stroke-linejoin="round"/>
<path d="M22.5 7.5L18.0938 11.9062M18.0938 11.9062C19.7788 13.5925 19.7788 16.4088 18.0938 18.0938M18.0938 11.9062C16.4088 10.2212 13.5925 10.2212 11.9062 11.9062M7.5 22.5L11.9062 18.0938M11.9062 18.0938C10.2212 16.4088 10.2212 13.5925 11.9062 11.9062M11.9062 18.0938C13.5912 19.7788 16.4075 19.7788 18.0938 18.0938M7.5 7.5L11.9062 11.9062M22.5 22.5L18.0938 18.0938" stroke="#1E3A8A" stroke-width="1.5" stroke-linecap="round" stroke-linejoin="round"/>
</svg>
